<?xml version="1.0" encoding="utf-8"?>
<!-- Generator: Adobe Illustrator 25.2.1, SVG Export Plug-In . SVG Version: 6.00 Build 0)  -->
<svg version="1.1" id="Camada_1" xmlns="http://www.w3.org/2000/svg" xmlns:xlink="http://www.w3.org/1999/xlink" x="0px" y="0px"
	 viewBox="0 0 1080 1080" style="enable-background:new 0 0 1080 1080;" xml:space="preserve">
<style type="text/css">
	.st0{fill:#005CFF;}
</style>
<g>
	<path class="st0" d="M435.9,503.9c0,0,102.2-7.6,102.2-127.4C538,256.5,454.5,198,348.5,198H0v669.8h348.5
		c0,0,212.7,6.7,212.7-197.7C561.2,670.1,570.5,503.9,435.9,503.9z M153.6,317.1h194.9c0,0,47.3,0,47.3,69.7
		c0,69.6-27.9,79.7-59.4,79.8H153.6V317.1z M339.5,748.8H153.6v-179h194.9c0,0,70.6-0.9,70.6,92C419.1,739.3,367.5,748,339.5,748.8z
		"/>
	<rect x="700.9" y="237.5" class="st0" width="276.4" height="82.5"/>
	<path class="st0" d="M845,368.4c-257.6,0-257.3,257.4-257.3,257.4s-17.7,256,257.4,256c0,0,229.2,13.2,229.2-178.1H956.4
		c0,0,3.9,72-107.4,72c0,0-117.9,7.9-117.9-116.5h347.1C1078.2,659.2,1116.2,368.4,845,368.4z M729.8,569.8
		c0,0,14.4-103.3,117.9-103.3c103.5,0,102.2,103.3,102.2,103.3H729.8z"/>
</g>
</svg>
