<?xml version="1.0" encoding="utf-8"?>
<!-- Generator: Adobe Illustrator 25.2.1, SVG Export Plug-In . SVG Version: 6.00 Build 0)  -->
<svg version="1.1" id="Camada_1" xmlns="http://www.w3.org/2000/svg" xmlns:xlink="http://www.w3.org/1999/xlink" x="0px" y="0px"
	 viewBox="0 0 1080 1080" style="enable-background:new 0 0 1080 1080;" xml:space="preserve">
<path d="M953.7,104.1H126.3C56.7,104.1,0,160.8,0,230.5v619.1c0,69.7,56.7,126.3,126.3,126.3h827.4c69.7,0,126.3-56.7,126.3-126.3
	V230.5C1080,160.8,1023.3,104.1,953.7,104.1z M869.7,227.6L540.5,463.7L221.2,227.6H869.7z M953.7,852.4H126.3
	c-1.6,0-2.9-1.3-2.9-2.9V308.8l416,307.6l417.1-299.2v532.4C956.6,851.1,955.3,852.4,953.7,852.4z"/>
</svg>
