<?xml version="1.0" encoding="utf-8"?>
<!-- Generator: Adobe Illustrator 25.2.1, SVG Export Plug-In . SVG Version: 6.00 Build 0)  -->
<svg version="1.1" id="Camada_1" xmlns="http://www.w3.org/2000/svg" xmlns:xlink="http://www.w3.org/1999/xlink" x="0px" y="0px"
	 viewBox="0 0 1080 1080" style="enable-background:new 0 0 1080 1080;" xml:space="preserve">
<style type="text/css">
	.st0{fill-rule:evenodd;clip-rule:evenodd;fill:#221E1B;}
	.st1{fill:#221E1B;}
</style>
<g>
	<path class="st0" d="M540,13.3c-298.2,0-540,241.8-540,540c0,238.6,154.7,441,369.3,512.4c27,5,36.9-11.7,36.9-26
		c0-12.9-0.5-55.4-0.7-100.5c-150.2,32.7-181.9-63.7-181.9-63.7c-24.6-62.4-60-79-60-79c-49-33.5,3.7-32.8,3.7-32.8
		c54.2,3.8,82.8,55.7,82.8,55.7c48.2,82.5,126.3,58.7,157.1,44.9c4.8-34.9,18.8-58.7,34.3-72.2c-119.9-13.6-246-60-246-266.9
		c0-59,21.1-107.1,55.6-144.9c-5.6-13.6-24.1-68.5,5.2-142.9c0,0,45.3-14.5,148.5,55.4c43.1-12,89.3-18,135.2-18.2
		c45.9,0.2,92.1,6.2,135.3,18.2c103.1-69.9,148.3-55.4,148.3-55.4c29.4,74.4,10.9,129.3,5.3,142.9c34.6,37.8,55.6,86,55.6,144.9
		c0,207.4-126.3,253.1-246.6,266.4c19.4,16.8,36.6,49.6,36.6,100c0,72.3-0.6,130.4-0.6,148.2c0,14.4,9.7,31.2,37.1,25.9
		c214.4-71.5,369-273.8,369-512.3C1080,255.1,838.2,13.3,540,13.3z"/>
	<path class="st1" d="M204.5,788.7c-1.2,2.7-5.4,3.5-9.3,1.6c-3.9-1.8-6.1-5.4-4.8-8.1c1.2-2.8,5.4-3.5,9.3-1.7
		C203.6,782.3,205.9,786,204.5,788.7L204.5,788.7z M197.9,783.7"/>
	<path class="st1" d="M226.4,813.1c-2.6,2.4-7.6,1.3-11-2.5c-3.5-3.8-4.2-8.8-1.6-11.2c2.7-2.4,7.5-1.3,11.1,2.5
		C228.4,805.6,229.1,810.6,226.4,813.1L226.4,813.1z M221.3,807.5"/>
	<path class="st1" d="M247.7,844.1c-3.3,2.3-8.7,0.1-12.1-4.7c-3.3-4.8-3.3-10.6,0.1-12.9c3.3-2.3,8.7-0.2,12.1,4.5
		C251.1,836,251.1,841.8,247.7,844.1L247.7,844.1z M247.7,844.1"/>
	<path class="st1" d="M276.9,874.2c-3,3.3-9.3,2.4-13.9-2.1c-4.7-4.3-6-10.5-3.1-13.8c3-3.3,9.3-2.3,14,2.1
		C278.6,864.7,280,871,276.9,874.2L276.9,874.2z M276.9,874.2"/>
	<path class="st1" d="M317.1,891.6c-1.3,4.2-7.4,6.1-13.5,4.3c-6.1-1.9-10.1-6.8-8.9-11.1c1.3-4.3,7.4-6.3,13.5-4.3
		C314.4,882.4,318.4,887.3,317.1,891.6L317.1,891.6z M317.1,891.6"/>
	<path class="st1" d="M361.3,894.9c0.1,4.5-5,8.1-11.5,8.2c-6.5,0.1-11.7-3.5-11.8-7.8c0-4.5,5.1-8.1,11.5-8.3
		C356,886.9,361.3,890.5,361.3,894.9L361.3,894.9z M361.3,894.9"/>
	<path class="st1" d="M402.4,887.9c0.8,4.3-3.7,8.8-10.1,10c-6.3,1.2-12.1-1.5-12.9-5.8c-0.8-4.5,3.8-8.9,10-10.1
		C395.9,880.9,401.6,883.5,402.4,887.9L402.4,887.9z M402.4,887.9"/>
</g>
</svg>
