<?xml version="1.0" encoding="utf-8"?>
<!-- Generator: Adobe Illustrator 25.2.1, SVG Export Plug-In . SVG Version: 6.00 Build 0)  -->
<svg version="1.1" id="Camada_1" xmlns="http://www.w3.org/2000/svg" xmlns:xlink="http://www.w3.org/1999/xlink" x="0px" y="0px"
	 viewBox="0 0 1080 1080" style="enable-background:new 0 0 1080 1080;" xml:space="preserve">
<style type="text/css">
	.st0{fill:url(#XMLID_2_);}
	.st1{fill:url(#XMLID_3_);}
	.st2{fill:url(#XMLID_4_);}
</style>
<g id="XMLID_332_">
	<radialGradient id="XMLID_2_" cx="-96.615" cy="1127.6334" r="1992.1558" gradientUnits="userSpaceOnUse">
		<stop  offset="0" style="stop-color:#F9ED41"/>
		<stop  offset="0.2412" style="stop-color:#FF833D"/>
		<stop  offset="0.401" style="stop-color:#EE5568"/>
		<stop  offset="0.4888" style="stop-color:#E7407B"/>
		<stop  offset="1" style="stop-color:#0028FF"/>
	</radialGradient>
	<path id="XMLID_337_" class="st0" d="M749.3,1080H330.6C148.3,1080,0,931.7,0,749.3V330.7C0,148.3,148.3,0,330.6,0h418.7
		C931.7,0,1080,148.3,1080,330.7v418.7C1080,931.7,931.7,1080,749.3,1080z M330.6,80.9c-137.7,0-249.8,112.1-249.8,249.8v418.7
		c0,137.7,112.1,249.8,249.8,249.8h418.7c137.7,0,249.8-112.1,249.8-249.8V330.7c0-137.7-112.1-249.8-249.8-249.8H330.6z"/>
	<radialGradient id="XMLID_3_" cx="-96.6142" cy="1127.63" r="1992.1555" gradientUnits="userSpaceOnUse">
		<stop  offset="0" style="stop-color:#F9ED41"/>
		<stop  offset="0.2412" style="stop-color:#FF833D"/>
		<stop  offset="0.401" style="stop-color:#EE5568"/>
		<stop  offset="0.4888" style="stop-color:#E7407B"/>
		<stop  offset="1" style="stop-color:#0028FF"/>
	</radialGradient>
	<path id="XMLID_334_" class="st1" d="M540,813.2c-150.6,0-273.2-122.6-273.2-273.2c0-150.6,122.5-273.2,273.2-273.2
		c150.6,0,273.2,122.6,273.2,273.2C813.2,690.6,690.6,813.2,540,813.2z M540,349.6c-105,0-190.4,85.4-190.4,190.4
		c0,105,85.4,190.4,190.4,190.4c105,0,190.4-85.4,190.4-190.4C730.4,435,645,349.6,540,349.6z"/>
	<radialGradient id="XMLID_4_" cx="-96.6108" cy="1127.6287" r="1992.1512" gradientUnits="userSpaceOnUse">
		<stop  offset="0" style="stop-color:#F9ED41"/>
		<stop  offset="0.2412" style="stop-color:#FF833D"/>
		<stop  offset="0.401" style="stop-color:#EE5568"/>
		<stop  offset="0.4888" style="stop-color:#E7407B"/>
		<stop  offset="1" style="stop-color:#0028FF"/>
	</radialGradient>
	<path id="XMLID_333_" class="st2" d="M914,237.1c0,39.3-31.8,71.1-71.1,71.1c-39.3,0-71.1-31.8-71.1-71.1
		c0-39.3,31.8-71.1,71.1-71.1C882.2,166,914,197.8,914,237.1z"/>
</g>
</svg>
