<?xml version="1.0" encoding="utf-8"?>
<!-- Generator: Adobe Illustrator 25.2.1, SVG Export Plug-In . SVG Version: 6.00 Build 0)  -->
<svg version="1.1" id="Camada_1" xmlns="http://www.w3.org/2000/svg" xmlns:xlink="http://www.w3.org/1999/xlink" x="0px" y="0px"
	 viewBox="0 0 1080 1080" style="enable-background:new 0 0 1080 1080;" xml:space="preserve">
<style type="text/css">
	.st0{fill:#036DC4;}
</style>
<g>
	<path class="st0" d="M1080,668.2v404.5H845.5V695.3c0-94.8-33.9-159.5-118.8-159.5c-64.8,0-103.3,43.6-120.3,85.8
		c-6.2,15.1-7.8,36-7.8,57.2v393.9H364.1c0,0,3.2-639.2,0-705.3h234.5v99.9c-0.5,0.8-1.1,1.6-1.6,2.3h1.6v-2.3
		c31.2-48,86.8-116.5,211.4-116.5C964.3,350.8,1080,451.6,1080,668.2L1080,668.2z M0,1072.7h234.5V367.4H0V1072.7z M0,1072.7
		 M241.5,128c0,66.7-54.1,120.7-120.7,120.7C54.1,248.8,0,194.7,0,128S54.1,7.3,120.7,7.3C187.4,7.3,241.5,61.3,241.5,128z"/>
</g>
</svg>
