<?xml version="1.0" encoding="utf-8"?>
<!-- Generator: Adobe Illustrator 25.3.1, SVG Export Plug-In . SVG Version: 6.00 Build 0)  -->
<svg version="1.1" id="Camada_1" xmlns="http://www.w3.org/2000/svg" xmlns:xlink="http://www.w3.org/1999/xlink" x="0px" y="0px"
	 viewBox="0 0 1080 365" style="enable-background:new 0 0 1080 365;" xml:space="preserve">
<style type="text/css">
	.st0{fill:url(#SVGID_1_);}
	.st1{fill:url(#SVGID_2_);}
	.st2{fill:url(#SVGID_3_);}
	.st3{fill:url(#SVGID_4_);}
	.st4{fill:url(#SVGID_5_);}
	.st5{fill:url(#SVGID_6_);}
	.st6{fill:url(#SVGID_7_);}
	.st7{fill:url(#SVGID_8_);}
	.st8{fill:url(#SVGID_9_);}
	.st9{fill:url(#SVGID_10_);}
	.st10{fill:url(#SVGID_11_);}
	.st11{fill:url(#SVGID_12_);}
	.st12{display:none;}
	.st13{display:inline;fill:#BD1622;}
	.st14{fill:#EF8026;}
	.st15{fill:url(#SVGID_13_);}
	.st16{fill:url(#SVGID_14_);}
	.st17{fill:url(#SVGID_15_);}
	.st18{fill:url(#SVGID_16_);}
	.st19{fill:#EA5B27;}
</style>
<g>
	<g>
		<g>
			<g>
				<linearGradient id="SVGID_1_" gradientUnits="userSpaceOnUse" x1="339.0904" y1="63.0452" x2="1045.019" y2="392.2251">
					<stop  offset="0" style="stop-color:#2AA9E1"/>
					<stop  offset="1" style="stop-color:#136097"/>
				</linearGradient>
				<path class="st0" d="M437.1,22.1l-0.1,0.3l-7.3,25.1l-3.9,13.1L419.2,84l-8.8,29.7L401.7,84L395,60.5l-3.9-13.1l-7.3-25.1
					l-0.2-0.3h-24.6v148.4h24.8V88.6l9.3,32.5l1.8,5.6l5.5,19h19.9l5.5-19l1.8-5.6l9.4-32.5v81.9h24.8V22.1H437.1z"/>
				<linearGradient id="SVGID_2_" gradientUnits="userSpaceOnUse" x1="354.2584" y1="24.9199" x2="1063.4863" y2="355.6383">
					<stop  offset="0" style="stop-color:#2AA9E1"/>
					<stop  offset="1" style="stop-color:#136097"/>
				</linearGradient>
				<path class="st1" d="M473.7,22.1v148.4h24.6v-54.6l18.1-18.1v72.7H541V22.1H473.7z M516.4,71.5l-11.6,11.7l-6.5,6.4V46.3h18.1
					V71.5z"/>
				<linearGradient id="SVGID_3_" gradientUnits="userSpaceOnUse" x1="366.9494" y1="-5.9851" x2="1075.8843" y2="324.5967">
					<stop  offset="0" style="stop-color:#2AA9E1"/>
					<stop  offset="1" style="stop-color:#136097"/>
				</linearGradient>
				<path class="st2" d="M608.3,104.8l11.4-11.4V22.1h-66.8v148.4h24.8v-47.4l8-8l11.1,55.4h26L608.3,104.8z M594.9,79.7l-4.2,4.3
					l-11.6,11.4l-1.5,1.5V47.5h17.2V79.7z"/>
				<linearGradient id="SVGID_4_" gradientUnits="userSpaceOnUse" x1="379.5357" y1="-36.9746" x2="1088.7456" y2="293.7354">
					<stop  offset="0" style="stop-color:#2AA9E1"/>
					<stop  offset="1" style="stop-color:#136097"/>
				</linearGradient>
				<path class="st3" d="M699.1,60.5V22.1h-67.5v148.4h67.5v-46.8h-24.8v22.9h-18.1V46.3h18.1v14.2H699.1z"/>
				<linearGradient id="SVGID_5_" gradientUnits="userSpaceOnUse" x1="385.298" y1="-61.3168" x2="1101.9473" y2="272.8623">
					<stop  offset="0" style="stop-color:#2AA9E1"/>
					<stop  offset="1" style="stop-color:#136097"/>
				</linearGradient>
				<path class="st4" d="M711,22.1v148.4h24.6V22.1H711z"/>
				<linearGradient id="SVGID_6_" gradientUnits="userSpaceOnUse" x1="397.9499" y1="-82.2386" x2="1107.2655" y2="248.5207">
					<stop  offset="0" style="stop-color:#2AA9E1"/>
					<stop  offset="1" style="stop-color:#136097"/>
				</linearGradient>
				<path class="st5" d="M747.5,22.1v148.4h66.7V22.1H747.5z M789.5,145.7h-17.2V47.5h17.2V145.7z"/>
			</g>
			<g>
				<linearGradient id="SVGID_7_" gradientUnits="userSpaceOnUse" x1="314.5367" y1="105.8307" x2="1024.1221" y2="436.7158">
					<stop  offset="0" style="stop-color:#2AA9E1"/>
					<stop  offset="1" style="stop-color:#136097"/>
				</linearGradient>
				<path class="st6" d="M696,236.8v-42.3h-64.4v62l13.4,10l11.4,8.5l14.8,11.1v34.3h-14.8v-24.6h-24.8v47.2H696v-69.2l-9.6-7.3
					l-15-11.1h-0.1l-14.8-11.3v-24.9h14.8v17.7H696z"/>
				<linearGradient id="SVGID_8_" gradientUnits="userSpaceOnUse" x1="327.0414" y1="75.5647" x2="1036.3569" y2="406.324">
					<stop  offset="0" style="stop-color:#2AA9E1"/>
					<stop  offset="1" style="stop-color:#136097"/>
				</linearGradient>
				<path class="st7" d="M707.9,194.5v148.4h66.7V194.5H707.9z M749.9,318.1h-17.2v-98.3h17.2V318.1z"/>
				<linearGradient id="SVGID_9_" gradientUnits="userSpaceOnUse" x1="339.7107" y1="44.6832" x2="1048.9375" y2="375.4011">
					<stop  offset="0" style="stop-color:#2AA9E1"/>
					<stop  offset="1" style="stop-color:#136097"/>
				</linearGradient>
				<path class="st8" d="M786.4,194.5v148.4h24.6v-54.6l17.1-17.1l1-1v72.7h24.6V194.5H786.4z M829.2,243.9l-11.6,11.7l-6.5,6.4
					v-43.3h18.1V243.9z"/>
				<linearGradient id="SVGID_10_" gradientUnits="userSpaceOnUse" x1="352.5369" y1="13.839" x2="1061.4718" y2="344.4208">
					<stop  offset="0" style="stop-color:#2AA9E1"/>
					<stop  offset="1" style="stop-color:#136097"/>
				</linearGradient>
				<path class="st9" d="M921,277.2l11.4-11.4v-71.3h-66.8v148.4h24.8v-47.4l2.1-2.1l5.9-5.9l11.1,55.4h26L921,277.2z M907.7,252.1
					l-4.2,4.3l-11.6,11.4l-1.5,1.5v-49.4h17.2V252.1z"/>
				<linearGradient id="SVGID_11_" gradientUnits="userSpaceOnUse" x1="362.9667" y1="-15.6635" x2="1073.5453" y2="315.6847">
					<stop  offset="0" style="stop-color:#2AA9E1"/>
					<stop  offset="1" style="stop-color:#136097"/>
				</linearGradient>
				<path class="st10" d="M1001.2,218.7v-24.2h-56.9v148.4h56.9V319H969v-26.9l21.5-21.5v-26.1l-21.2,21.2l-0.3,0.2v-47.2H1001.2z"
					/>
				<linearGradient id="SVGID_12_" gradientUnits="userSpaceOnUse" x1="375.3847" y1="-43.6851" x2="1084.9701" y2="287.2">
					<stop  offset="0" style="stop-color:#2AA9E1"/>
					<stop  offset="1" style="stop-color:#136097"/>
				</linearGradient>
				<path class="st11" d="M1077.5,236.8v-42.3h-64.4v62l13.4,10l11.4,8.5l14.8,11.1v34.3h-14.8v-24.6h-24.8v47.2h64.4v-69.2
					l-9.6-7.3l-15-11.1h-0.2l-14.8-11.3v-24.9h14.8v17.7H1077.5z"/>
			</g>
		</g>
		<g>
			<g>
				<g class="st12">
					<path class="st13" d="M862.4,30.2v132.2l24.6-8.3V38.5L862.4,30.2z"/>
					<path class="st13" d="M911.7,46.8v99.1l24.6-8.3V55L911.7,46.8z"/>
					<path class="st13" d="M961,63.3v66.1l24.6-8.3V71.5L961,63.3z"/>
					<path class="st13" d="M1010.3,79.8v33l24.6-8.3V88L1010.3,79.8z"/>
				</g>
				<g>
					<path class="st14" d="M838.1,22.1h-0.3v148.4h0.3l24.3-8.1V30.2L838.1,22.1z"/>
					<path class="st14" d="M887.1,38.5v115.6l24.6-8.3V46.8L887.1,38.5z"/>
					<path class="st14" d="M936.4,55v82.6l24.6-8.3V63.3L936.4,55z"/>
					<path class="st14" d="M985.7,71.5v49.6l24.6-8.3v-33L985.7,71.5z"/>
					<path class="st14" d="M1034.9,88v16.5l24.6-8.3L1034.9,88z"/>
				</g>
			</g>
			<g>
				<g class="st12">
					<path class="st13" d="M606.9,202.6v132.2l-24.6-8.3V210.9L606.9,202.6z"/>
					<path class="st13" d="M557.6,219.1v99.1L533,310v-82.6L557.6,219.1z"/>
					<path class="st13" d="M508.3,235.7v66.1l-24.6-8.3v-49.6L508.3,235.7z"/>
					<path class="st13" d="M459.1,252.2v33l-24.6-8.3v-16.5L459.1,252.2z"/>
				</g>
				<g>
					<path class="st14" d="M607.3,194.5h0.3v148.4h-0.3l-24.3-8.1V202.6L607.3,194.5z"/>
					<path class="st14" d="M558.3,210.9v115.6l-24.6-8.3v-99.1L558.3,210.9z"/>
					<path class="st14" d="M509,227.4V310l-24.6-8.3v-66.1L509,227.4z"/>
					<path class="st14" d="M459.8,243.9v49.6l-24.6-8.3v-33L459.8,243.9z"/>
					<path class="st14" d="M410.5,260.4V277l-24.6-8.3L410.5,260.4z"/>
				</g>
			</g>
		</g>
	</g>
	<g>
		<g>
			<radialGradient id="SVGID_13_" cx="167.9155" cy="194.3471" r="150.7851" gradientUnits="userSpaceOnUse">
				<stop  offset="0" style="stop-color:#136097"/>
				<stop  offset="1" style="stop-color:#2AA9E1"/>
			</radialGradient>
			<path class="st15" d="M224.5,2.9v112.2h-33.2V37.2h-47.5v77.9l12.4,7.2c0,0.1,0,0.1,0,0.2v9.3c-5.4,1.3-10.5,3.4-15.3,6.4
				l-6.5-6.5c-1.1-1.1-2.5-1.7-4-1.7c-1.5,0-2.9,0.6-4,1.7l-8.9,8.9l-7.7-4.6V2.9H224.5z"/>
			<radialGradient id="SVGID_14_" cx="167.9155" cy="194.3471" r="150.7851" gradientUnits="userSpaceOnUse">
				<stop  offset="0" style="stop-color:#136097"/>
				<stop  offset="1" style="stop-color:#2AA9E1"/>
			</radialGradient>
			<path class="st16" d="M335.1,362.1H299l-0.2-199.7l-74.3,42.1l-4.6-2.7c0.5-1.5,1-3.1,1.4-4.7h9.2c3.1,0,5.7-2.6,5.7-5.7v-14.2
				c0-3.1-2.5-5.7-5.7-5.7h-9.2c-1.2-5.1-3.2-10-5.8-14.5l9,5.3l110.3-60.7L335.1,362.1z"/>
			<radialGradient id="SVGID_15_" cx="167.9155" cy="194.3471" r="150.7851" gradientUnits="userSpaceOnUse">
				<stop  offset="0" style="stop-color:#136097"/>
				<stop  offset="1" style="stop-color:#2AA9E1"/>
			</radialGradient>
			<path class="st17" d="M116.6,197.1c1.1,4.6,2.8,9,5.1,13.2l-82.9-47.9l-0.2,199.7H2.5l0.3-260.5l114.9,66.1
				c-0.4,1.3-0.8,2.6-1.1,3.9h-9.4c-3.1,0-5.7,2.6-5.7,5.7v14.2c0,3.1,2.5,5.7,5.7,5.7H116.6z"/>
			<radialGradient id="SVGID_16_" cx="167.9155" cy="194.3471" r="150.7851" gradientUnits="userSpaceOnUse">
				<stop  offset="0" style="stop-color:#136097"/>
				<stop  offset="1" style="stop-color:#2AA9E1"/>
			</radialGradient>
			<path class="st18" d="M224.5,229.1v133H109.8V249.9H143v77.9h47.5v-77.9l-8.8-5.1v-8.2c0.4-0.1,0.7-0.2,1.1-0.3c0,0,0.1,0,0.1,0
				c1.7-0.5,3.4-1,5.1-1.6c3.1-1.2,6.1-2.6,9-4.4l6.6,6.6c1.1,1.1,2.5,1.7,4,1.7c1.5,0,2.9-0.6,4-1.7l9.7-9.7L224.5,229.1z"/>
		</g>
		<g>
			<g>
				<path class="st14" d="M168.9,168.3l-1.2,2.2l3.8,2.3L168.9,168.3z M168.9,191c-1.3,0-2.3,1-2.3,2.3c0,1.3,1,2.3,2.3,2.3
					c1.3,0,2.3-1,2.3-2.3C171.2,192.1,170.2,191,168.9,191z M184.2,195l-12.7-22.3l-2.5-4.4l-1.2,2.2L156.4,190l-2.6,4.5
					c-0.4,0.7-0.4,1.5-0.1,2.2L159,207h7.7V200c-1.7-0.6-3.2-1.8-4-3.4c-0.5-1-0.8-2.1-0.8-3.3c0-0.1,0-0.1,0-0.2
					c0.1-3.8,3.2-6.9,7.1-6.9c3.9,0,7.1,3.2,7.1,7.1c0,1.2-0.3,2.3-0.8,3.3c-0.6,1.1-1.5,2-2.5,2.7c-0.5,0.3-1,0.5-1.5,0.7v6.9h7.6
					l1.6-3.2l3.8-7.6C184.4,195.8,184.4,195.4,184.2,195z M155.3,211.5v4.5h27.2v-4.5H155.3z M230.5,175.3h-11.8c-0.1,0-0.3,0-0.4,0
					c-1.3-7.2-4.1-13.9-8.2-19.7c0.1-0.1,0.2-0.2,0.3-0.3l0.8-0.8l7.5-7.6c0.7-0.7,0.7-1.9,0-2.7l-10-10c-0.1-0.1-0.2-0.2-0.3-0.2
					c0,0,0,0,0,0c-0.2-0.1-0.3-0.2-0.5-0.2c-0.1,0-0.1,0-0.2,0c-0.1,0-0.2,0-0.4,0c-0.1,0-0.2,0-0.4,0c-0.1,0-0.1,0-0.2,0
					c-0.2,0.1-0.4,0.1-0.5,0.2c-0.1,0.1-0.2,0.2-0.3,0.2l-8.4,8.4c-0.1,0.1-0.2,0.2-0.3,0.3c-5.8-4-12.4-6.8-19.6-8.1
					c0-0.2,0.1-0.3,0.1-0.5v-11.8c0-1.1-0.8-1.9-1.9-1.9h-14.1c-1,0-1.9,0.8-1.9,1.9v11.8c0,0.2,0,0.3,0.1,0.5
					c-7.2,1.3-13.9,4.1-19.7,8.2c-0.1-0.1-0.2-0.3-0.3-0.4l-8.4-8.4c-0.1-0.1-0.2-0.2-0.3-0.2c-0.2-0.1-0.3-0.2-0.5-0.2
					c-0.1,0-0.1,0-0.2,0c-0.1,0-0.2,0-0.4,0c-0.1,0-0.2,0-0.4,0c-0.1,0-0.1,0-0.2,0c-0.2,0.1-0.4,0.1-0.5,0.2
					c-0.1,0.1-0.2,0.2-0.3,0.2l-8.2,8.2l-1.8,1.8c-0.7,0.7-0.7,1.9,0,2.7l8.4,8.4c0.1,0.1,0.3,0.2,0.4,0.3c-2.9,4.2-5.2,8.9-6.7,14
					c-0.6,1.9-1.1,3.9-1.4,5.8c-0.2-0.1-0.4-0.1-0.7-0.1h-11.8c-1.1,0-1.9,0.9-1.9,1.9v14.2c0,1.1,0.8,1.9,1.9,1.9H119
					c0.2,0,0.5,0,0.7-0.1c1.3,7.2,4.2,14,8.2,19.8c-0.1,0.1-0.3,0.2-0.4,0.3l-0.2,0.2l-8.2,8.2c-0.7,0.7-0.7,1.9,0,2.7l10,10
					c0.7,0.7,1.9,0.7,2.7,0l8.4-8.4c0.1-0.1,0.2-0.3,0.3-0.4c3.3,2.3,7,4.2,10.9,5.7l1-3.3l2.1-7.3h-1.7c-1,0-1.9-0.8-1.9-1.9v-9.9
					c0-1,0.8-1.9,1.9-1.9h1.5l-4.9-8.5c-1-1.7-1-3.9,0-5.6l3-5.2l11.4-19.5l3.2-5.5c0.3-0.4,0.7-0.7,1.1-0.9
					c-2.5-0.3-4.6-1.9-5.6-4.1c-3.6,0.8-6.8,2.2-9.6,4c-4.9,3.3-8.2,8.2-8.8,13.7c2.7,1,4.7,3.6,4.7,6.7c0,1.1-0.3,2.2-0.7,3.2
					c-0.3,0.6-0.6,1.1-1,1.6c-0.9,1-2.2,1.8-3.5,2.2c-0.6,0.1-1.2,0.2-1.8,0.2c-3.9,0-7.1-3.2-7.1-7.1c0-1.4,0.4-2.8,1.2-3.9
					c0.9-1.3,2.2-2.3,3.7-2.8c0.4-6.4,3.9-12.1,9.1-16.2c1-0.8,2-1.5,3.2-2.1h-5.6c-0.1,0.2-0.1,0.4-0.2,0.6
					c-1.1,2.5-3.6,4.3-6.5,4.3c-3.9,0-7.1-3.2-7.1-7.1c0-1.7,0.6-3.2,1.5-4.4c1.3-1.7,3.3-2.7,5.6-2.7c3.1,0,5.8,2,6.7,4.8h16
					c0.9-2.8,3.6-4.8,6.7-4.8c3.1,0,5.8,2,6.7,4.8h16.1c0.9-2.8,3.6-4.8,6.7-4.8c0.3,0,0.6,0,0.9,0.1c1.9,0.3,3.6,1.3,4.7,2.8
					c0.9,1.2,1.4,2.7,1.4,4.3c0,3.9-3.2,7.1-7.1,7.1c-3.1,0-5.8-2-6.7-4.8h-5.6c7,4.1,11.8,10.8,12.3,18.3c2.8,0.9,4.9,3.6,4.9,6.8
					c0,3.2-2.1,5.9-5,6.8c-0.7,0.2-1.4,0.3-2.1,0.3c-0.6,0-1.2-0.1-1.8-0.2c-1.4-0.4-2.6-1.1-3.5-2.2c-0.8-0.9-1.4-2.1-1.6-3.3v0
					c-0.1-0.4-0.1-0.9-0.1-1.4c0-3.1,2-5.7,4.7-6.7c-0.9-8.6-8.5-15.6-18.5-17.7c-1,2.2-3.1,3.8-5.5,4.1c0.5,0.2,0.9,0.5,1.2,1
					l8.8,15.1l0,0l9.2,15.8c0.7,1.3,0.7,2.8,0,4.1l-4.8,8.4l-0.5,0.9h1.4c1,0,1.9,0.8,1.9,1.9v9.9c0,1-0.8,1.9-1.9,1.9h-1.7
					l3.1,10.6c3.9-1.5,7.5-3.4,10.9-5.7c0.1,0.2,0.2,0.3,0.3,0.5l8.4,8.4c0.7,0.7,1.9,0.7,2.7,0l9-9l1-1c0.7-0.7,0.7-1.9,0-2.7
					l-8.4-8.4c-0.1-0.1-0.3-0.3-0.4-0.3c2.8-4,5-8.4,6.5-13.2c0.7-2.1,1.2-4.3,1.6-6.5c0.1,0,0.3,0,0.4,0h11.8
					c1.1,0,1.9-0.8,1.9-1.9v-14.2C232.4,176.2,231.5,175.3,230.5,175.3z M155.3,211.5v4.5h27.2v-4.5H155.3z M184.2,195l-12.7-22.3
					l-2.5-4.4l-1.2,2.2L156.4,190l-2.6,4.5c-0.4,0.7-0.4,1.5-0.1,2.2L159,207h7.7V200c-1.7-0.6-3.2-1.8-4-3.4
					c-0.5-1-0.8-2.1-0.8-3.3c0-0.1,0-0.1,0-0.2c0.1-3.8,3.2-6.9,7.1-6.9c3.9,0,7.1,3.2,7.1,7.1c0,1.2-0.3,2.3-0.8,3.3
					c-0.6,1.1-1.5,2-2.5,2.7c-0.5,0.3-1,0.5-1.5,0.7v6.9h7.6l1.6-3.2l3.8-7.6C184.4,195.8,184.4,195.4,184.2,195z M168.9,191
					c-1.3,0-2.3,1-2.3,2.3c0,1.3,1,2.3,2.3,2.3c1.3,0,2.3-1,2.3-2.3C171.2,192.1,170.2,191,168.9,191z M155.3,211.5v4.5h27.2v-4.5
					H155.3z M184.2,195l-12.7-22.3l-2.5-4.4l-1.2,2.2L156.4,190l-2.6,4.5c-0.4,0.7-0.4,1.5-0.1,2.2L159,207h7.7V200
					c-1.7-0.6-3.2-1.8-4-3.4c-0.5-1-0.8-2.1-0.8-3.3c0-0.1,0-0.1,0-0.2c0.1-3.8,3.2-6.9,7.1-6.9c3.9,0,7.1,3.2,7.1,7.1
					c0,1.2-0.3,2.3-0.8,3.3c-0.6,1.1-1.5,2-2.5,2.7c-0.5,0.3-1,0.5-1.5,0.7v6.9h7.6l1.6-3.2l3.8-7.6
					C184.4,195.8,184.4,195.4,184.2,195z M168.9,191c-1.3,0-2.3,1-2.3,2.3c0,1.3,1,2.3,2.3,2.3c1.3,0,2.3-1,2.3-2.3
					C171.2,192.1,170.2,191,168.9,191z M184.2,195l-12.7-22.3l-2.5-4.4l-1.2,2.2L156.4,190l-2.6,4.5c-0.4,0.7-0.4,1.5-0.1,2.2
					L159,207h7.7V200c-1.7-0.6-3.2-1.8-4-3.4c-0.5-1-0.8-2.1-0.8-3.3c0-0.1,0-0.1,0-0.2c0.1-3.8,3.2-6.9,7.1-6.9
					c3.9,0,7.1,3.2,7.1,7.1c0,1.2-0.3,2.3-0.8,3.3c-0.6,1.1-1.5,2-2.5,2.7c-0.5,0.3-1,0.5-1.5,0.7v6.9h7.6l1.6-3.2l3.8-7.6
					C184.4,195.8,184.4,195.4,184.2,195z M155.3,211.5v4.5h27.2v-4.5H155.3z M168.9,191c-1.3,0-2.3,1-2.3,2.3c0,1.3,1,2.3,2.3,2.3
					c1.3,0,2.3-1,2.3-2.3C171.2,192.1,170.2,191,168.9,191z"/>
				<path class="st14" d="M177.9,233.6c0,0.1,0,0.3,0,0.4v11.8c0,1.1-0.8,1.9-1.9,1.9h-14.1c-1,0-1.9-0.8-1.9-1.9V234
					c0-0.1,0-0.3,0-0.4c-1.3-0.2-2.7-0.5-4-0.9l0.7-2.3l2.8-9.8h18.8l3.5,12.1C180.5,233.1,179.2,233.4,177.9,233.6z"/>
			</g>
			<g>
				<path class="st19" d="M141.7,154.7c0,0.1,0,0.2,0,0.3c-0.1,1.1-1.1,2-2.2,2c-1.3,0-2.3-1-2.3-2.3c0-0.8,0.4-1.4,1-1.8
					c0.4-0.3,0.8-0.4,1.3-0.4C140.7,152.4,141.7,153.4,141.7,154.7z"/>
				<path class="st19" d="M144,182c0,0.3,0,0.5-0.1,0.7c-0.3,0.9-1.2,1.5-2.2,1.5c-0.3,0-0.6-0.1-0.8-0.2c-0.8-0.3-1.4-1.2-1.4-2.1
					c0-0.5,0.2-0.9,0.4-1.3c0-0.1,0.1-0.1,0.1-0.2c0.4-0.5,1-0.8,1.7-0.8C143,179.8,144,180.8,144,182z"/>
				<path class="st19" d="M171.2,154.7c0,1.3-1,2.3-2.3,2.3c-1.3,0-2.3-1-2.3-2.3c0-1.2,1-2.3,2.3-2.3h0.1
					C170.2,152.4,171.2,153.4,171.2,154.7z"/>
				<path class="st19" d="M198.5,182c0,1-0.6,1.8-1.4,2.1c-0.3,0.1-0.5,0.2-0.8,0.2c-1.3,0-2.3-1-2.3-2.3c0-1.3,1-2.3,2.3-2.3
					c0.8,0,1.4,0.4,1.9,1C198.4,181.1,198.5,181.5,198.5,182z"/>
				<path class="st19" d="M200.8,154.7c0,1.3-1,2.3-2.3,2.3c-1.2,0-2.3-1-2.3-2.3c0-1.3,1-2.3,2.3-2.3
					C199.8,152.4,200.8,153.4,200.8,154.7z"/>
			</g>
		</g>
	</g>
</g>
</svg>
