<?xml version="1.0" encoding="utf-8"?>
<!-- Generator: Adobe Illustrator 25.2.1, SVG Export Plug-In . SVG Version: 6.00 Build 0)  -->
<svg version="1.1" id="Camada_1" xmlns="http://www.w3.org/2000/svg" xmlns:xlink="http://www.w3.org/1999/xlink" x="0px" y="0px"
	 viewBox="0 0 1080 380" style="enable-background:new 0 0 1080 380;" xml:space="preserve">
<style type="text/css">
	.st0{fill:#A0B4D9;}
</style>
<g>
	<g>
		<g>
			<polygon class="st0" points="350.1,377.7 312.4,377.7 312.2,169 234.5,213 114.6,141.2 114.6,2.3 234.5,2.3 234.5,119.5 
				199.8,119.5 199.8,38.1 150.2,38.1 150.2,119.5 234.5,168.9 349.8,105.4 			"/>
			<polygon class="st0" points="234.5,238.8 234.5,377.7 114.6,377.7 114.6,260.5 149.3,260.5 149.3,341.9 198.9,341.9 198.9,260.5 
				40.4,169 40.3,377.7 2.5,377.7 2.8,105.4 			"/>
		</g>
		<g>
			<g>
				<g>
					<polygon class="st0" points="843,69.1 854.7,72.4 854.7,183.2 843,186.5 					"/>
					<polygon class="st0" points="875.5,78.2 896.4,84 896.4,171.6 875.5,177.4 					"/>
					<polygon class="st0" points="917.2,89.8 938.1,95.6 938.1,160 917.2,165.8 					"/>
					<polygon class="st0" points="958.9,101.4 979.8,107.1 979.8,148.4 958.9,154.2 					"/>
					<polygon class="st0" points="1000.6,112.9 1021.5,118.7 1021.5,136.8 1000.6,142.6 					"/>
					<polygon class="st0" points="1042.3,124.5 1054,127.8 1042.3,131 					"/>
				</g>
				<g>
					<path class="st0" d="M450.1,55.1h24.1V80v12.8v23v36.4v24.1v24.3h-24.3v-24.3v-24.1v-31.9l-9.2,31.9l-1.7,5.5l-5.4,18.6H433
						h-9.2h-9.2H414l-5.4-18.6l-1.7-5.5l-9.2-31.9v31.9v24.1v24.3h-24.3v-24.3v-24.1v-36.4v-23V79.9V55.1h24.1l0.1,0.3l7.1,24.6
						l3.8,12.8l6.5,23l8.6,29.1l8.6-29.1l6.5-23l3.8-12.8l7.1-24.6L450.1,55.1z"/>
					<path class="st0" d="M527.7,55.1h24.1v23.7v0.6v13.4V105v10v9.9v5.4v24.4V165v12.1v23.4h-24.1v-23.4V165v-10.3v-24.4v-1l-1,1
						L510,147v7.7V165v12.1v23.4h-24.1v-23.4v-6V165v-10.3v-9.2v-15.3v-5.4V115V92.7v-14V55.1H510H527.7z M527.7,78.8H510v14V115
						v6.3l6.4-6.3l11.3-11.5V92.7V78.8z"/>
					<path class="st0" d="M632,200.5h-25.5l-10.9-54.3l-5.8,5.8l-2,2v12v10.2v24.3h-24.3v-10.2v-12.1v-2v-23.6V152v-36.4v-23V79.9
						V55.1h24.3h16.9H629V80v7.3v5.5V113v2.8v9.2l-11.2,11.2L632,200.5z M604.7,79.9h-5.4h-11.5v12.8v23v6.5v6.1l1.5-1.5l11.3-11.2
						l4.1-4.2v-15v-3.6L604.7,79.9L604.7,79.9z"/>
					<path class="st0" d="M682.5,55.1h24.3v23.7v14h-24.3v-14h-17.7v14V115v9.9v5.4v24.4V165v12.1h17.7V165v-10.3h24.3V165v12.1
						v23.4h-24.3h-17.7h-24.1v-23.4V165v-10.3v-24.4v-5.4V115V92.7v-14V55.1h24.1H682.5z"/>
					<path class="st0" d="M718.4,55.1h24.1v23.7v14V115v9.9v5.4v24.4V165v12.1v23.4h-24.1v-23.4V165v-10.3v-24.4v-5.4V115V92.7v-14
						V55.1z"/>
					<path class="st0" d="M795.3,55.1h24.1V80v12.8v23v36.4v24.1v24.3h-24.1h-16.9h-24.3v-24.3v-24.1v-36.4v-23V79.9V55.1h24.3
						H795.3z M795.3,79.9h-16.9v12.8v23v36.4v24.1h16.9v-24.1v-36.4v-23V79.9z"/>
				</g>
			</g>
			<g>
				<g>
					<polygon class="st0" points="608.1,246.3 596.4,249.6 596.4,360.4 608.1,363.7 					"/>
					<polygon class="st0" points="575.5,255.4 554.7,261.2 554.7,348.8 575.5,354.6 					"/>
					<polygon class="st0" points="533.8,267 513,272.8 513,337.2 533.8,343 					"/>
					<polygon class="st0" points="492.2,278.6 471.3,284.4 471.3,325.6 492.2,331.4 					"/>
					<polygon class="st0" points="450.5,290.1 429.6,295.9 429.6,314 450.5,319.8 					"/>
					<polygon class="st0" points="408.8,301.7 397,305 408.8,308.3 					"/>
				</g>
				<g>
					<path class="st0" d="M679.4,232.3h24.3v12.1v12.1v14v3.3h-24.3v-3.3v-14h-14.5v14v3.3v7.1l14.5,11.1h0.1l14.7,10.9l9.5,7.1
						v21.5v8.6v4.1v11.5v22.1h-24.3h-14.5h-24.3v-22.1v-11.5v-12.7h24.3v12.7v11.5h14.5v-11.5v-12.7V322l-14.5-10.9l-11.2-8.3
						l-13.1-9.7v-1.2v-18.2v-3.3v-7.6v-6.4v-12.1v-12.1h24.3h14.5V232.3z"/>
					<path class="st0" d="M756.5,232.3h24.1v24.9V270v23v36.4v24.1v24.3h-24.1h-16.9h-24.3v-24.3v-24.1V293v-23v-12.8v-24.9h24.3
						L756.5,232.3L756.5,232.3z M756.5,257.1h-16.9v12.8v23v36.4v24.1h16.9v-24.1v-36.4v-23V257.1z"/>
					<path class="st0" d="M834.2,232.3h24.1V256v0.6V270v12.2v10v9.9v5.4v24.4v10.3v12.1v23.4h-24.1v-23.4v-12.1v-10.3v-24.4v-1
						l-1,1l-16.7,16.7v7.7v10.3v12.1v23.4h-24.1v-23.4v-6v-6.1v-10.3v-9.2v-15.3V302v-9.9v-22.3v-14v-23.7h24.1h17.7V232.3z
						 M834.2,256h-17.7v14v22.3v6.3l6.4-6.3l11.3-11.5V270V256z"/>
					<path class="st0" d="M938.5,377.7H913l-10.9-54.3l-5.8,5.8l-2,2v11.9v10.2v24.3H870v-10.2v-12.1v-2v-23.6v-0.6v-36.4v-23v-12.8
						V232h24.3h16.9h24.3v24.9v7.3v5.5v20.2v2.8v9.2l-11.2,11.2L938.5,377.7z M911.1,257.1h-5.4h-11.5v12.8v23v6.5v6.1l1.5-1.5
						l11.3-11.2l4.1-4.2v-15.1v-3.6L911.1,257.1L911.1,257.1z"/>
					<path class="st0" d="M992.3,232.3h10.5V256h-10.5h-21.1v14v22.3v9.9v0.1l0.3-0.1l9.9-9.9l10.9-10.9v10.9v9.9v4.8l-0.6,0.6
						L971.2,328v3.9v10.3v12.1h21.1h10.5v23.4h-10.5h-21.1H947v-23.4v-2.2v-9.9v-10.3v-5.5v-18.9v-5.4v-9.9v-22.3v-14v-23.7h24.1
						L992.3,232.3L992.3,232.3z"/>
					<path class="st0" d="M1053.2,232.3h24.3v12.1v12.1v14v3.3h-24.3v-3.3v-14h-14.5v14v3.3v7.1l14.5,11.1h0.1l14.7,10.9l9.5,7.1
						v21.5v8.6v4.1v11.5v22.1h-24.3h-14.5h-24.3v-22.1v-11.5v-12.7h24.3v12.7v11.5h14.5v-11.5v-12.7V322l-14.5-10.9l-11.2-8.3
						l-13.1-9.7v-1.2v-18.2v-3.3v-7.6v-6.4v-12.1v-12.1h24.3h14.5V232.3z"/>
				</g>
			</g>
		</g>
	</g>
</g>
</svg>
