<?xml version="1.0" encoding="utf-8"?>
<!-- Generator: Adobe Illustrator 25.3.1, SVG Export Plug-In . SVG Version: 6.00 Build 0)  -->
<svg version="1.1" id="Camada_1" xmlns="http://www.w3.org/2000/svg" xmlns:xlink="http://www.w3.org/1999/xlink" x="0px" y="0px"
	 viewBox="0 0 1080 1060" style="enable-background:new 0 0 1080 1060;" xml:space="preserve">
<style type="text/css">
	.st0{display:none;}
	.st1{fill:url(#SVGID_1_);}
	.st2{fill:url(#SVGID_2_);}
	.st3{fill:url(#SVGID_3_);}
	.st4{fill:url(#SVGID_4_);}
	.st5{fill:url(#SVGID_5_);}
	.st6{fill:url(#SVGID_6_);}
	.st7{fill:url(#SVGID_7_);}
	.st8{fill:url(#SVGID_8_);}
	.st9{fill:url(#SVGID_9_);}
	.st10{fill:url(#SVGID_10_);}
	.st11{fill:url(#SVGID_11_);}
	.st12{fill:url(#SVGID_12_);}
	.st13{display:inline;fill:#BD1622;}
	.st14{fill:#EF8026;}
	.st15{fill:url(#SVGID_13_);}
	.st16{fill:url(#SVGID_14_);}
	.st17{fill:url(#SVGID_15_);}
	.st18{fill:url(#SVGID_16_);}
	.st19{fill:#EA5B27;}
</style>
<rect x="3.6" y="0.1" class="st0" width="1080" height="1080"/>
<g>
	<g>
		<g>
			<g>
				<linearGradient id="SVGID_1_" gradientUnits="userSpaceOnUse" x1="-24.731" y1="637.4265" x2="1026.6252" y2="1127.682">
					<stop  offset="0" style="stop-color:#2AA9E1"/>
					<stop  offset="1" style="stop-color:#136097"/>
				</linearGradient>
				<path class="st1" d="M121.3,576.4l-0.2,0.4l-10.8,37.4l-5.7,19.4l-9.9,34.9l-13,44.2l-13-44.2l-10-34.9l-5.7-19.4l-10.8-37.4
					l-0.2-0.4H5v221.1h36.9v-122l13.9,48.4l2.7,8.4l8.2,28.3h29.6l8.2-28.3l2.7-8.4l13.9-48.4v122H158V576.4H121.3z"/>
				<linearGradient id="SVGID_2_" gradientUnits="userSpaceOnUse" x1="-2.141" y1="580.6455" x2="1054.1292" y2="1073.1924">
					<stop  offset="0" style="stop-color:#2AA9E1"/>
					<stop  offset="1" style="stop-color:#136097"/>
				</linearGradient>
				<path class="st2" d="M175.7,576.4v221.1h36.7v-81.3l27-27v108.3H276V576.4H175.7z M239.3,650l-17.2,17.5l-9.7,9.5v-64.6h27V650z
					"/>
				<linearGradient id="SVGID_3_" gradientUnits="userSpaceOnUse" x1="16.76" y1="534.618" x2="1072.5938" y2="1026.9613">
					<stop  offset="0" style="stop-color:#2AA9E1"/>
					<stop  offset="1" style="stop-color:#136097"/>
				</linearGradient>
				<path class="st3" d="M376.2,699.6l17-17V576.4h-99.5v221.1h36.9V727l11.9-11.9l16.6,82.5h38.7L376.2,699.6z M356.3,662.2
					l-6.2,6.4l-17.2,17l-2.2,2.2v-73.6h25.7V662.2z"/>
				<linearGradient id="SVGID_4_" gradientUnits="userSpaceOnUse" x1="35.5051" y1="488.4646" x2="1091.7483" y2="980.9989">
					<stop  offset="0" style="stop-color:#2AA9E1"/>
					<stop  offset="1" style="stop-color:#136097"/>
				</linearGradient>
				<path class="st4" d="M511.5,633.7v-57.3H410.9v221.1h100.6v-69.6h-36.9v34h-27V612.5h27v21.2H511.5z"/>
				<linearGradient id="SVGID_5_" gradientUnits="userSpaceOnUse" x1="44.087" y1="452.2112" x2="1111.4099" y2="949.912">
					<stop  offset="0" style="stop-color:#2AA9E1"/>
					<stop  offset="1" style="stop-color:#136097"/>
				</linearGradient>
				<path class="st5" d="M529.2,576.4v221.1h36.7V576.4H529.2z"/>
				<linearGradient id="SVGID_6_" gradientUnits="userSpaceOnUse" x1="62.9298" y1="421.0518" x2="1119.3304" y2="913.6595">
					<stop  offset="0" style="stop-color:#2AA9E1"/>
					<stop  offset="1" style="stop-color:#136097"/>
				</linearGradient>
				<path class="st6" d="M583.5,576.4v221.1h99.3V576.4H583.5z M646.1,760.6h-25.7V614.2h25.7V760.6z"/>
			</g>
			<g>
				<linearGradient id="SVGID_7_" gradientUnits="userSpaceOnUse" x1="-61.2995" y1="701.1479" x2="995.5029" y2="1193.943">
					<stop  offset="0" style="stop-color:#2AA9E1"/>
					<stop  offset="1" style="stop-color:#136097"/>
				</linearGradient>
				<path class="st7" d="M506.8,896.2v-63h-96v92.4l19.9,14.8l17,12.6l22.1,16.6v51.1h-22.1v-36.7h-36.9v70.3h96v-103l-14.4-10.8
					l-22.3-16.6h-0.2L447.8,907v-37.2h22.1v26.3H506.8z"/>
				<linearGradient id="SVGID_8_" gradientUnits="userSpaceOnUse" x1="-42.6759" y1="656.0721" x2="1013.7247" y2="1148.6798">
					<stop  offset="0" style="stop-color:#2AA9E1"/>
					<stop  offset="1" style="stop-color:#136097"/>
				</linearGradient>
				<path class="st8" d="M524.5,833.2v221.1h99.3V833.2H524.5z M587.1,1017.3h-25.7V871h25.7V1017.3z"/>
				<linearGradient id="SVGID_9_" gradientUnits="userSpaceOnUse" x1="-23.8073" y1="610.0794" x2="1032.4612" y2="1102.6255">
					<stop  offset="0" style="stop-color:#2AA9E1"/>
					<stop  offset="1" style="stop-color:#136097"/>
				</linearGradient>
				<path class="st9" d="M641.5,833.2v221.1h36.7v-81.3l25.4-25.4l1.5-1.5v108.3h36.7V833.2H641.5z M705.1,906.8l-17.2,17.5
					l-9.7,9.5v-64.6h27V906.8z"/>
				<linearGradient id="SVGID_10_" gradientUnits="userSpaceOnUse" x1="-4.7048" y1="564.1425" x2="1051.1289" y2="1056.4858">
					<stop  offset="0" style="stop-color:#2AA9E1"/>
					<stop  offset="1" style="stop-color:#136097"/>
				</linearGradient>
				<path class="st10" d="M842,956.3l17-17V833.2h-99.5v221.1h36.9v-70.5l3.1-3.1l8.8-8.8l16.6,82.5h38.7L842,956.3z M822.1,918.9
					l-6.2,6.4l-17.2,17l-2.2,2.2V871h25.7V918.9z"/>
				<linearGradient id="SVGID_11_" gradientUnits="userSpaceOnUse" x1="10.8285" y1="520.2037" x2="1069.1102" y2="1013.6885">
					<stop  offset="0" style="stop-color:#2AA9E1"/>
					<stop  offset="1" style="stop-color:#136097"/>
				</linearGradient>
				<path class="st11" d="M961.4,869.2v-36h-84.7v221.1h84.7v-35.6h-48v-40l32.1-32.1v-38.9l-31.6,31.6l-0.4,0.2v-70.3H961.4z"/>
				<linearGradient id="SVGID_12_" gradientUnits="userSpaceOnUse" x1="29.323" y1="478.4705" x2="1086.1254" y2="971.2656">
					<stop  offset="0" style="stop-color:#2AA9E1"/>
					<stop  offset="1" style="stop-color:#136097"/>
				</linearGradient>
				<path class="st12" d="M1075,896.2v-63h-96v92.4l19.9,14.8l17,12.6l22.1,16.6v51.1H1016v-36.7H979v70.3h96v-103l-14.4-10.8
					l-22.3-16.6h-0.2L1016,907v-37.2h22.1v26.3H1075z"/>
			</g>
		</g>
		<g>
			<g>
				<g class="st0">
					<path class="st13" d="M754.7,588.6v196.8l36.7-12.3V600.8L754.7,588.6z"/>
					<path class="st13" d="M828.1,613.2v147.6l36.7-12.3v-123L828.1,613.2z"/>
					<path class="st13" d="M901.5,637.8v98.4l36.7-12.3v-73.8L901.5,637.8z"/>
					<path class="st13" d="M974.9,662.4v49.2l36.7-12.3v-24.6L974.9,662.4z"/>
				</g>
				<g>
					<path class="st14" d="M718.5,576.4H718v221.1h0.5l36.2-12.1V588.6L718.5,576.4z"/>
					<path class="st14" d="M791.4,600.8v172.2l36.7-12.3V613.2L791.4,600.8z"/>
					<path class="st14" d="M864.8,625.5v123l36.7-12.3v-98.4L864.8,625.5z"/>
					<path class="st14" d="M938.2,650.1v73.8l36.7-12.3v-49.2L938.2,650.1z"/>
					<path class="st14" d="M1011.6,674.7v24.6l36.7-12.3L1011.6,674.7z"/>
				</g>
			</g>
			<g>
				<g class="st0">
					<path class="st13" d="M374.2,845.3v196.8l-36.7-12.3V857.6L374.2,845.3z"/>
					<path class="st13" d="M300.8,869.9v147.6l-36.7-12.3v-123L300.8,869.9z"/>
					<path class="st13" d="M227.3,894.5v98.4l-36.7-12.3v-73.8L227.3,894.5z"/>
					<path class="st13" d="M153.9,919.1v49.2L117.2,956v-24.6L153.9,919.1z"/>
				</g>
				<g>
					<path class="st14" d="M374.7,833.2h0.5v221.1h-0.5l-36.2-12.1V845.3L374.7,833.2z"/>
					<path class="st14" d="M301.8,857.6v172.2l-36.7-12.3V869.9L301.8,857.6z"/>
					<path class="st14" d="M228.4,882.2v123l-36.7-12.3v-98.4L228.4,882.2z"/>
					<path class="st14" d="M155,906.8v73.8l-36.7-12.3v-49.2L155,906.8z"/>
					<path class="st14" d="M81.6,931.4V956l-36.7-12.3L81.6,931.4z"/>
				</g>
			</g>
		</g>
	</g>
	<g>
		<g>
			<radialGradient id="SVGID_13_" cx="538.679" cy="290.9012" r="224.5679" gradientUnits="userSpaceOnUse">
				<stop  offset="0" style="stop-color:#136097"/>
				<stop  offset="1" style="stop-color:#2AA9E1"/>
			</radialGradient>
			<path class="st15" d="M623,5.8v167.1h-49.5v-116h-70.7v116l18.5,10.8c0,0.1,0,0.2,0,0.3v13.8c-8.1,2-15.7,5.1-22.8,9.5l-9.7-9.8
				c-1.6-1.6-3.7-2.5-6-2.5c-2.3,0-4.4,0.9-6,2.5l-13.2,13.2l-11.5-6.9V5.8H623z"/>
			<radialGradient id="SVGID_14_" cx="538.679" cy="290.9012" r="224.5679" gradientUnits="userSpaceOnUse">
				<stop  offset="0" style="stop-color:#136097"/>
				<stop  offset="1" style="stop-color:#2AA9E1"/>
			</radialGradient>
			<path class="st16" d="M787.7,540.8h-53.8l-0.3-297.4L623,306l-6.8-4.1c0.8-2.3,1.5-4.6,2-7h13.7c4.7,0,8.5-3.8,8.5-8.5v-21.1
				c0-4.7-3.8-8.5-8.5-8.5h-13.6c-1.8-7.6-4.7-14.9-8.7-21.6l13.4,7.9l164.3-90.4L787.7,540.8z"/>
			<radialGradient id="SVGID_15_" cx="538.679" cy="290.9012" r="224.5679" gradientUnits="userSpaceOnUse">
				<stop  offset="0" style="stop-color:#136097"/>
				<stop  offset="1" style="stop-color:#2AA9E1"/>
			</radialGradient>
			<path class="st17" d="M462.2,295c1.7,6.9,4.2,13.4,7.7,19.6l-123.5-71.3l-0.3,297.4h-53.8l0.4-388l171.1,98.4
				c-0.6,1.9-1.2,3.8-1.6,5.8h-14.1c-4.7,0-8.5,3.8-8.5,8.5v21.1c0,4.7,3.8,8.5,8.5,8.5H462.2z"/>
			<radialGradient id="SVGID_16_" cx="538.679" cy="290.9012" r="224.5679" gradientUnits="userSpaceOnUse">
				<stop  offset="0" style="stop-color:#136097"/>
				<stop  offset="1" style="stop-color:#2AA9E1"/>
			</radialGradient>
			<path class="st18" d="M623,342.7v198H452.1V373.7h49.5v116h70.7v-116l-13.1-7.5V354c0.5-0.1,1.1-0.3,1.6-0.4c0,0,0.1,0,0.1,0
				c2.6-0.7,5.1-1.5,7.6-2.4c4.7-1.8,9.1-3.9,13.4-6.5l9.8,9.9c1.6,1.6,3.7,2.5,6,2.5c2.2,0,4.4-0.9,6-2.5l14.5-14.5L623,342.7z"/>
		</g>
		<g>
			<g>
				<path class="st14" d="M540.2,252.2l-1.9,3.2l5.6,3.4L540.2,252.2z M540.2,286c-1.9,0-3.4,1.5-3.4,3.4c0,1.9,1.5,3.4,3.4,3.4
					s3.4-1.5,3.4-3.4C543.6,287.5,542.1,286,540.2,286z M562.9,291.9l-19-33.1l-3.8-6.6l-1.9,3.2l-16.8,29l-3.9,6.7
					c-0.6,1-0.6,2.3-0.1,3.3l7.7,15.2h11.4v-10.3c-2.6-0.9-4.7-2.7-5.9-5.1c-0.8-1.5-1.2-3.1-1.2-4.9c0-0.1,0-0.2,0-0.3
					c0.1-5.7,4.8-10.3,10.5-10.3c5.8,0,10.6,4.7,10.6,10.6c0,1.8-0.4,3.5-1.2,4.9c-0.9,1.7-2.2,3-3.8,4c-0.7,0.4-1.4,0.8-2.2,1.1
					v10.3h11.3l2.4-4.7l5.7-11.3C563.2,293.1,563.2,292.4,562.9,291.9z M519.9,316.5v6.8h40.6v-6.8H519.9z M631.9,262.6h-17.6
					c-0.2,0-0.4,0-0.6,0.1c-1.9-10.8-6.1-20.7-12.2-29.4c0.2-0.1,0.3-0.2,0.5-0.4l1.2-1.2l11.2-11.2c1.1-1.1,1.1-2.9,0-4l-14.9-14.9
					c-0.1-0.1-0.3-0.3-0.4-0.4c0,0,0,0,0,0c-0.2-0.1-0.5-0.3-0.7-0.3c-0.1,0-0.2-0.1-0.3-0.1c-0.2,0-0.4-0.1-0.5-0.1
					c-0.2,0-0.4,0-0.5,0.1c-0.1,0-0.2,0-0.3,0.1c-0.3,0.1-0.5,0.2-0.7,0.3c-0.2,0.1-0.3,0.2-0.4,0.4l-12.5,12.5
					c-0.1,0.1-0.3,0.3-0.4,0.5c-8.6-6-18.5-10.2-29.3-12.1c0.1-0.2,0.1-0.5,0.1-0.7v-17.6c0-1.6-1.3-2.8-2.8-2.8h-21.1
					c-1.6,0-2.8,1.3-2.8,2.8v17.6c0,0.3,0,0.5,0.1,0.7c-10.7,1.9-20.7,6.2-29.3,12.2c-0.1-0.2-0.3-0.4-0.4-0.6l-12.5-12.5
					c-0.1-0.1-0.3-0.3-0.4-0.4c-0.2-0.1-0.5-0.3-0.7-0.3c-0.1,0-0.2-0.1-0.3-0.1c-0.2,0-0.4-0.1-0.5-0.1c-0.2,0-0.4,0-0.5,0.1
					c-0.1,0-0.2,0-0.3,0.1c-0.3,0.1-0.5,0.2-0.7,0.3c-0.2,0.1-0.3,0.2-0.4,0.4l-12.2,12.2l-2.7,2.7c-1.1,1.1-1.1,2.9,0,4l12.5,12.5
					c0.2,0.2,0.4,0.3,0.6,0.4c-4.4,6.3-7.8,13.3-10,20.8c-0.9,2.8-1.6,5.7-2.1,8.7c-0.3-0.1-0.6-0.2-1-0.2h-17.6
					c-1.6,0-2.8,1.3-2.8,2.8v21.1c0,1.6,1.3,2.8,2.8,2.8h17.6c0.4,0,0.7-0.1,1-0.2c1.9,10.8,6.2,20.8,12.3,29.5
					c-0.2,0.1-0.4,0.3-0.6,0.4l-0.3,0.3L466,331.5c-1.1,1.1-1.1,2.9,0,4l14.9,14.9c1.1,1.1,2.9,1.1,4,0l12.5-12.5
					c0.2-0.2,0.3-0.4,0.5-0.6c5,3.5,10.4,6.3,16.2,8.5l1.4-5l3.1-10.8H516c-1.6,0-2.8-1.3-2.8-2.8v-14.7c0-1.6,1.3-2.8,2.8-2.8h2.2
					l-7.3-12.7c-1.5-2.6-1.5-5.8,0-8.4l4.5-7.7l17-29l4.8-8.2c0.5-0.7,1-1.1,1.7-1.4c-3.7-0.5-6.8-2.8-8.3-6.1
					c-5.3,1.2-10.2,3.2-14.3,6c-7.3,5-12.3,12.2-13.1,20.4c4.1,1.4,7,5.4,7,10c0,1.7-0.4,3.3-1.1,4.7c-0.4,0.8-0.9,1.6-1.6,2.3
					c-1.4,1.6-3.2,2.7-5.3,3.2c-0.8,0.2-1.7,0.3-2.6,0.3c-5.8,0-10.6-4.7-10.6-10.6c0-2.2,0.6-4.1,1.7-5.8c1.3-2,3.2-3.5,5.5-4.2
					c0.7-9.5,5.7-18,13.6-24.1c1.5-1.2,3-2.2,4.7-3.2h-8.3c-0.1,0.3-0.2,0.6-0.3,0.8c-1.6,3.7-5.4,6.4-9.7,6.4
					c-5.8,0-10.6-4.7-10.6-10.6c0-2.5,0.9-4.7,2.3-6.5c1.9-2.5,4.9-4,8.3-4c4.6,0,8.6,3,10,7.2h23.9c1.4-4.2,5.4-7.2,10-7.2
					c4.7,0,8.6,3,10,7.2h24c1.4-4.2,5.4-7.2,10-7.2c0.5,0,0.9,0,1.4,0.1c2.9,0.4,5.4,1.9,7,4.1c1.3,1.8,2.1,4,2.1,6.4
					c0,5.8-4.7,10.6-10.6,10.6c-4.6,0-8.6-3-10-7.2h-8.4c10.5,6.2,17.5,16.1,18.3,27.3c4.2,1.4,7.2,5.4,7.2,10.1
					c0,4.8-3.1,8.8-7.5,10.1c-1,0.3-2,0.5-3.1,0.5c-0.9,0-1.8-0.1-2.6-0.3c-2.1-0.5-3.9-1.7-5.3-3.2c-1.2-1.4-2.1-3.1-2.4-4.9v0
					c-0.1-0.7-0.2-1.4-0.2-2.1c0-4.6,2.9-8.5,7-10c-1.4-12.7-12.6-23.2-27.5-26.4c-1.5,3.2-4.5,5.6-8.2,6.1c0.7,0.3,1.3,0.8,1.8,1.5
					l13.1,22.5l0,0l13.6,23.5c1.1,1.9,1.1,4.2,0,6.1l-7.1,12.5l-0.8,1.4h2.1c1.6,0,2.8,1.3,2.8,2.8v14.7c0,1.6-1.3,2.8-2.8,2.8H562
					l4.5,15.8c5.8-2.2,11.2-5.1,16.2-8.6c0.1,0.3,0.3,0.5,0.5,0.7l12.5,12.5c1.1,1.1,2.9,1.1,4,0l13.4-13.4l1.5-1.5
					c1.1-1.1,1.1-2.9,0-4l-12.5-12.5c-0.2-0.2-0.4-0.4-0.7-0.5c4.1-6,7.4-12.5,9.7-19.6c1-3.2,1.8-6.4,2.4-9.7
					c0.2,0.1,0.4,0.1,0.6,0.1h17.6c1.6,0,2.8-1.3,2.8-2.8v-21.1C634.7,263.8,633.4,262.6,631.9,262.6z M519.9,316.5v6.8h40.6v-6.8
					H519.9z M562.9,291.9l-19-33.1l-3.8-6.6l-1.9,3.2l-16.8,29l-3.9,6.7c-0.6,1-0.6,2.3-0.1,3.3l7.7,15.2h11.4v-10.3
					c-2.6-0.9-4.7-2.7-5.9-5.1c-0.8-1.5-1.2-3.1-1.2-4.9c0-0.1,0-0.2,0-0.3c0.1-5.7,4.8-10.3,10.5-10.3c5.8,0,10.6,4.7,10.6,10.6
					c0,1.8-0.4,3.5-1.2,4.9c-0.9,1.7-2.2,3-3.8,4c-0.7,0.4-1.4,0.8-2.2,1.1v10.3h11.3l2.4-4.7l5.7-11.3
					C563.2,293.1,563.2,292.4,562.9,291.9z M540.2,286c-1.9,0-3.4,1.5-3.4,3.4c0,1.9,1.5,3.4,3.4,3.4s3.4-1.5,3.4-3.4
					C543.6,287.5,542.1,286,540.2,286z M519.9,316.5v6.8h40.6v-6.8H519.9z M562.9,291.9l-19-33.1l-3.8-6.6l-1.9,3.2l-16.8,29
					l-3.9,6.7c-0.6,1-0.6,2.3-0.1,3.3l7.7,15.2h11.4v-10.3c-2.6-0.9-4.7-2.7-5.9-5.1c-0.8-1.5-1.2-3.1-1.2-4.9c0-0.1,0-0.2,0-0.3
					c0.1-5.7,4.8-10.3,10.5-10.3c5.8,0,10.6,4.7,10.6,10.6c0,1.8-0.4,3.5-1.2,4.9c-0.9,1.7-2.2,3-3.8,4c-0.7,0.4-1.4,0.8-2.2,1.1
					v10.3h11.3l2.4-4.7l5.7-11.3C563.2,293.1,563.2,292.4,562.9,291.9z M540.2,286c-1.9,0-3.4,1.5-3.4,3.4c0,1.9,1.5,3.4,3.4,3.4
					s3.4-1.5,3.4-3.4C543.6,287.5,542.1,286,540.2,286z M562.9,291.9l-19-33.1l-3.8-6.6l-1.9,3.2l-16.8,29l-3.9,6.7
					c-0.6,1-0.6,2.3-0.1,3.3l7.7,15.2h11.4v-10.3c-2.6-0.9-4.7-2.7-5.9-5.1c-0.8-1.5-1.2-3.1-1.2-4.9c0-0.1,0-0.2,0-0.3
					c0.1-5.7,4.8-10.3,10.5-10.3c5.8,0,10.6,4.7,10.6,10.6c0,1.8-0.4,3.5-1.2,4.9c-0.9,1.7-2.2,3-3.8,4c-0.7,0.4-1.4,0.8-2.2,1.1
					v10.3h11.3l2.4-4.7l5.7-11.3C563.2,293.1,563.2,292.4,562.9,291.9z M519.9,316.5v6.8h40.6v-6.8H519.9z M540.2,286
					c-1.9,0-3.4,1.5-3.4,3.4c0,1.9,1.5,3.4,3.4,3.4s3.4-1.5,3.4-3.4C543.6,287.5,542.1,286,540.2,286z"/>
				<path class="st14" d="M553.5,349.4c0,0.2,0.1,0.4,0.1,0.6v17.6c0,1.6-1.3,2.8-2.8,2.8h-21.1c-1.6,0-2.8-1.3-2.8-2.8V350
					c0-0.2,0-0.4,0.1-0.6c-2-0.4-4-0.8-5.9-1.3l1-3.4l4.2-14.7h28l5.2,18.1C557.5,348.6,555.5,349.1,553.5,349.4z"/>
			</g>
			<g>
				<path class="st19" d="M499.7,231.8c0,0.1,0,0.3,0,0.4c-0.2,1.7-1.6,3-3.3,3c-1.9,0-3.4-1.5-3.4-3.4c0-1.1,0.6-2.1,1.4-2.8
					c0.5-0.4,1.2-0.6,2-0.6C498.2,228.4,499.7,229.9,499.7,231.8z"/>
				<path class="st19" d="M503.1,272.6c0,0.4-0.1,0.7-0.2,1.1c-0.5,1.3-1.7,2.3-3.2,2.3c-0.4,0-0.9-0.1-1.2-0.2
					c-1.2-0.5-2.1-1.7-2.1-3.1c0-0.7,0.2-1.4,0.6-2c0.1-0.1,0.1-0.2,0.2-0.3c0.6-0.7,1.5-1.2,2.5-1.2
					C501.5,269.2,503.1,270.7,503.1,272.6z"/>
				<path class="st19" d="M543.6,231.8c0,1.9-1.5,3.4-3.4,3.4s-3.4-1.5-3.4-3.4c0-1.9,1.5-3.4,3.4-3.4h0.1
					C542.1,228.5,543.6,230,543.6,231.8z"/>
				<path class="st19" d="M584.2,272.6c0,1.4-0.9,2.6-2.1,3.1c-0.4,0.1-0.8,0.2-1.3,0.2c-1.9,0-3.4-1.5-3.4-3.4
					c0-1.9,1.5-3.4,3.4-3.4c1.1,0,2.2,0.6,2.8,1.4C584,271.2,584.2,271.8,584.2,272.6z"/>
				<path class="st19" d="M587.6,231.8c0,1.9-1.5,3.4-3.4,3.4c-1.9,0-3.4-1.5-3.4-3.4c0-1.9,1.5-3.4,3.4-3.4
					C586.1,228.4,587.6,229.9,587.6,231.8z"/>
			</g>
		</g>
	</g>
</g>
</svg>
