<?xml version="1.0" encoding="utf-8"?>
<!-- Generator: Adobe Illustrator 25.3.1, SVG Export Plug-In . SVG Version: 6.00 Build 0)  -->
<svg version="1.1" id="Camada_1" xmlns="http://www.w3.org/2000/svg" xmlns:xlink="http://www.w3.org/1999/xlink" x="0px" y="0px"
	 viewBox="0 0 1000 1080" style="enable-background:new 0 0 1000 1080;" xml:space="preserve">
<style type="text/css">
	.st0{fill:url(#SVGID_1_);}
	.st1{fill:url(#SVGID_2_);}
	.st2{fill:url(#SVGID_3_);}
	.st3{fill:url(#SVGID_4_);}
	.st4{fill:#EF8026;}
	.st5{fill:#EA5B27;}
</style>
<g>
	<g>
		<radialGradient id="SVGID_1_" cx="497.3457" cy="575.4532" r="451.2346" gradientUnits="userSpaceOnUse">
			<stop  offset="0" style="stop-color:#136097"/>
			<stop  offset="1" style="stop-color:#2AA9E1"/>
		</radialGradient>
		<path class="st0" d="M666.7,2.5v335.7h-99.5V105.1h-142v233.1l37.1,21.7c0,0.2,0,0.4,0,0.6v27.7c-16.2,3.9-31.5,10.3-45.8,19.1
			l-19.6-19.6c-3.2-3.2-7.5-5-12-5c-4.5,0-8.8,1.8-12,5l-26.5,26.6l-23.1-13.8V2.5H666.7z"/>
		<radialGradient id="SVGID_2_" cx="497.3457" cy="575.4532" r="451.2346" gradientUnits="userSpaceOnUse">
			<stop  offset="0" style="stop-color:#136097"/>
			<stop  offset="1" style="stop-color:#2AA9E1"/>
		</radialGradient>
		<path class="st1" d="M997.7,1077.5H889.6L889,479.8l-222.3,126l-13.7-8.2c1.6-4.6,3-9.3,4.1-14h27.5c9.4,0,17-7.6,17-17v-42.4
			c0-9.4-7.6-17-17-17h-27.4c-3.7-15.3-9.5-29.9-17.5-43.5l27,15.8l330.2-181.7L997.7,1077.5z"/>
		<radialGradient id="SVGID_3_" cx="497.3457" cy="575.4532" r="451.2346" gradientUnits="userSpaceOnUse">
			<stop  offset="0" style="stop-color:#136097"/>
			<stop  offset="1" style="stop-color:#2AA9E1"/>
		</radialGradient>
		<path class="st2" d="M343.7,583.6c3.4,13.8,8.5,27,15.4,39.5L111,479.8l-0.5,597.7H2.3l0.8-779.6l343.8,197.8
			c-1.2,3.8-2.3,7.7-3.3,11.6h-28.2c-9.4,0-17,7.6-17,17v42.4c0,9.4,7.6,17,17,17H343.7z"/>
		<radialGradient id="SVGID_4_" cx="497.3457" cy="575.4532" r="451.2346" gradientUnits="userSpaceOnUse">
			<stop  offset="0" style="stop-color:#136097"/>
			<stop  offset="1" style="stop-color:#2AA9E1"/>
		</radialGradient>
		<path class="st3" d="M666.7,679.6v397.9H323.3V741.8h99.5v233.1h142V741.8l-26.3-15.2v-24.4c1.1-0.3,2.2-0.5,3.2-0.8
			c0.1,0,0.2-0.1,0.2-0.1c5.1-1.4,10.3-3,15.3-4.9c9.4-3.5,18.4-7.9,26.9-13.1l19.8,19.8c3.2,3.2,7.5,5,12,5c4.5,0,8.8-1.8,12-5
			L657,674L666.7,679.6z"/>
	</g>
	<g>
		<g>
			<path class="st4" d="M500.4,497.6l-3.7,6.5l11.3,6.7L500.4,497.6z M500.4,565.6c-3.8,0-6.8,3-6.8,6.8c0,3.8,3,6.8,6.8,6.8
				c3.8,0,6.8-3,6.8-6.8C507.2,568.6,504.2,565.6,500.4,565.6z M546.1,577.4L508,510.8l-7.6-13.2l-3.7,6.5L463,562.4l-7.8,13.5
				c-1.2,2-1.2,4.5-0.2,6.7l15.6,30.6h22.9v-20.7c-5.2-1.8-9.4-5.5-11.9-10.3c-1.6-3-2.4-6.3-2.4-9.9c0-0.2,0-0.4,0-0.6
				c0.3-11.5,9.6-20.7,21.2-20.7c11.7,0,21.2,9.5,21.2,21.3c0,3.6-0.9,7-2.4,9.9c-1.7,3.3-4.4,6.1-7.6,8.1c-1.4,0.9-2.9,1.6-4.5,2.1
				v20.7h22.7l4.8-9.5l11.5-22.7C546.7,579.8,546.7,578.5,546.1,577.4z M459.7,626.8v13.6h81.5v-13.6H459.7z M684.6,518.5h-35.4
				c-0.4,0-0.8,0.1-1.2,0.1c-3.8-21.6-12.3-41.7-24.4-59.1c0.3-0.2,0.6-0.5,0.9-0.8l2.4-2.5l22.6-22.6c2.2-2.2,2.2-5.8,0-8l-29.9-30
				c-0.3-0.3-0.6-0.5-0.9-0.7c0,0,0,0,0,0c-0.5-0.3-1-0.5-1.5-0.7c-0.2-0.1-0.3-0.1-0.5-0.1c-0.3-0.1-0.7-0.1-1.1-0.1
				c-0.3,0-0.7,0-1.1,0.1c-0.2,0-0.3,0.1-0.5,0.1c-0.5,0.2-1,0.4-1.5,0.7c-0.3,0.2-0.6,0.5-0.9,0.7l-25,25.1c-0.3,0.3-0.6,0.6-0.8,1
				c-17.3-12-37.2-20.5-58.8-24.3c0.1-0.5,0.2-0.9,0.2-1.5v-35.4c0-3.1-2.5-5.7-5.6-5.7h-42.3c-3.1,0-5.7,2.5-5.7,5.7v35.4
				c0,0.5,0.1,1,0.2,1.5c-21.6,3.9-41.6,12.4-59,24.5c-0.2-0.4-0.5-0.8-0.9-1.1l-25-25.1c-0.3-0.3-0.6-0.5-0.9-0.7
				c-0.5-0.3-1-0.5-1.5-0.7c-0.2-0.1-0.3-0.1-0.5-0.1c-0.3-0.1-0.7-0.1-1.1-0.1c-0.4,0-0.7,0-1.1,0.1c-0.2,0-0.3,0.1-0.5,0.1
				c-0.5,0.2-1,0.4-1.5,0.7c-0.3,0.2-0.6,0.5-0.9,0.7l-24.5,24.5l-5.5,5.5c-2.2,2.2-2.2,5.8,0,8l25,25.1c0.3,0.4,0.8,0.7,1.2,0.9
				c-8.8,12.6-15.6,26.7-20.2,41.8c-1.7,5.7-3.1,11.5-4.2,17.5c-0.6-0.2-1.3-0.4-2-0.4h-35.4c-3.1,0-5.7,2.6-5.7,5.7v42.4
				c0,3.1,2.5,5.7,5.7,5.7h35.4c0.7,0,1.4-0.1,2-0.4c3.9,21.7,12.4,41.8,24.6,59.3c-0.4,0.2-0.8,0.5-1.1,0.9l-0.6,0.6l-24.4,24.5
				c-2.2,2.2-2.2,5.8,0,8l29.9,30c2.2,2.2,5.8,2.2,8,0l25-25.1c0.4-0.4,0.7-0.8,0.9-1.2c10,6.9,20.9,12.7,32.5,17l2.9-10l6.3-21.8
				h-5.1c-3.1,0-5.6-2.5-5.6-5.6v-29.6c0-3.1,2.5-5.6,5.6-5.6h4.4l-14.6-25.6c-3-5.2-3-11.6,0.1-16.8l9.1-15.5l34.1-58.3l9.6-16.4
				c0.9-1.3,2.1-2.2,3.4-2.7c-7.4-0.9-13.6-5.7-16.6-12.2c-10.7,2.3-20.5,6.5-28.7,12.1c-14.8,10-24.7,24.5-26.4,40.9
				c8.2,2.9,14.1,10.8,14.1,20c0,3.4-0.8,6.6-2.2,9.4c-0.8,1.7-1.9,3.3-3.1,4.6c-2.8,3.1-6.5,5.4-10.6,6.5c-1.7,0.4-3.5,0.6-5.3,0.6
				c-11.7,0-21.2-9.5-21.2-21.2c0-4.3,1.3-8.3,3.5-11.7c2.6-4,6.5-7,11.1-8.5c1.3-19,11.5-36.1,27.3-48.5c3-2.3,6.1-4.5,9.5-6.4
				h-16.8c-0.2,0.6-0.4,1.1-0.6,1.7c-3.3,7.5-10.8,12.8-19.5,12.8c-11.7,0-21.2-9.5-21.2-21.3c0-5,1.7-9.5,4.5-13.1
				c3.9-4.9,9.9-8.1,16.7-8.1c9.3,0,17.3,6,20.1,14.5h48c2.8-8.4,10.8-14.5,20.1-14.5c9.4,0,17.3,6,20.1,14.5h48.3
				c2.8-8.4,10.8-14.5,20.1-14.5c0.9,0,1.9,0.1,2.8,0.2c5.8,0.8,10.8,3.8,14.2,8.3c2.7,3.5,4.3,8,4.3,12.8
				c0,11.7-9.5,21.3-21.2,21.3c-9.3,0-17.3-6-20.1-14.5H552c21.1,12.4,35.2,32.3,36.7,54.9c8.5,2.8,14.6,10.8,14.6,20.2
				c0,9.6-6.3,17.7-15,20.3c-2,0.6-4.1,0.9-6.2,0.9c-1.8,0-3.6-0.2-5.3-0.6c-4.2-1.1-7.8-3.4-10.6-6.5c-2.4-2.8-4.2-6.2-4.9-9.9v0
				c-0.3-1.3-0.4-2.7-0.4-4.1c0-9.3,5.9-17.1,14.2-20c-2.8-25.6-25.4-46.6-55.3-53c-3,6.5-9.1,11.3-16.5,12.3
				c1.4,0.5,2.7,1.5,3.6,2.9l26.3,45.2l0,0l27.4,47.1c2.2,3.8,2.2,8.4,0.1,12.3l-14.2,25.1l-1.6,2.8h4.3c3.1,0,5.6,2.5,5.6,5.6v29.6
				c0,3.1-2.5,5.6-5.6,5.6h-5.1l9.1,31.8c11.6-4.4,22.6-10.2,32.6-17.2c0.3,0.5,0.6,1,1,1.4l25,25.1c2.2,2.2,5.8,2.2,8,0l26.9-27
				l3-3c2.2-2.2,2.2-5.8,0-8l-25-25.1c-0.4-0.4-0.9-0.8-1.3-1c8.3-12,14.9-25.2,19.5-39.4c2-6.3,3.7-12.8,4.9-19.5
				c0.4,0.1,0.8,0.1,1.2,0.1h35.4c3.1,0,5.7-2.5,5.7-5.7v-42.4C690.2,521.1,687.7,518.5,684.6,518.5z M459.7,626.8v13.6h81.5v-13.6
				H459.7z M546.1,577.4L508,510.8l-7.6-13.2l-3.7,6.5L463,562.4l-7.8,13.5c-1.2,2-1.2,4.5-0.2,6.7l15.6,30.6h22.9v-20.7
				c-5.2-1.8-9.4-5.5-11.9-10.3c-1.6-3-2.4-6.3-2.4-9.9c0-0.2,0-0.4,0-0.6c0.3-11.5,9.6-20.7,21.2-20.7c11.7,0,21.2,9.5,21.2,21.3
				c0,3.6-0.9,7-2.4,9.9c-1.7,3.3-4.4,6.1-7.6,8.1c-1.4,0.9-2.9,1.6-4.5,2.1v20.7h22.7l4.8-9.5l11.5-22.7
				C546.7,579.8,546.7,578.5,546.1,577.4z M500.4,565.6c-3.8,0-6.8,3-6.8,6.8c0,3.8,3,6.8,6.8,6.8c3.8,0,6.8-3,6.8-6.8
				C507.2,568.6,504.2,565.6,500.4,565.6z M459.7,626.8v13.6h81.5v-13.6H459.7z M546.1,577.4L508,510.8l-7.6-13.2l-3.7,6.5
				L463,562.4l-7.8,13.5c-1.2,2-1.2,4.5-0.2,6.7l15.6,30.6h22.9v-20.7c-5.2-1.8-9.4-5.5-11.9-10.3c-1.6-3-2.4-6.3-2.4-9.9
				c0-0.2,0-0.4,0-0.6c0.3-11.5,9.6-20.7,21.2-20.7c11.7,0,21.2,9.5,21.2,21.3c0,3.6-0.9,7-2.4,9.9c-1.7,3.3-4.4,6.1-7.6,8.1
				c-1.4,0.9-2.9,1.6-4.5,2.1v20.7h22.7l4.8-9.5l11.5-22.7C546.7,579.8,546.7,578.5,546.1,577.4z M500.4,565.6c-3.8,0-6.8,3-6.8,6.8
				c0,3.8,3,6.8,6.8,6.8c3.8,0,6.8-3,6.8-6.8C507.2,568.6,504.2,565.6,500.4,565.6z M546.1,577.4L508,510.8l-7.6-13.2l-3.7,6.5
				L463,562.4l-7.8,13.5c-1.2,2-1.2,4.5-0.2,6.7l15.6,30.6h22.9v-20.7c-5.2-1.8-9.4-5.5-11.9-10.3c-1.6-3-2.4-6.3-2.4-9.9
				c0-0.2,0-0.4,0-0.6c0.3-11.5,9.6-20.7,21.2-20.7c11.7,0,21.2,9.5,21.2,21.3c0,3.6-0.9,7-2.4,9.9c-1.7,3.3-4.4,6.1-7.6,8.1
				c-1.4,0.9-2.9,1.6-4.5,2.1v20.7h22.7l4.8-9.5l11.5-22.7C546.7,579.8,546.7,578.5,546.1,577.4z M459.7,626.8v13.6h81.5v-13.6
				H459.7z M500.4,565.6c-3.8,0-6.8,3-6.8,6.8c0,3.8,3,6.8,6.8,6.8c3.8,0,6.8-3,6.8-6.8C507.2,568.6,504.2,565.6,500.4,565.6z"/>
			<path class="st4" d="M527.1,693c0.1,0.3,0.1,0.8,0.1,1.1v35.4c0,3.1-2.5,5.7-5.6,5.7h-42.3c-3.1,0-5.7-2.5-5.7-5.7v-35.4
				c0-0.4,0.1-0.8,0.1-1.1c-4-0.7-8-1.6-11.9-2.6l2-6.9l8.4-29.5h56.4l10.4,36.3C535.2,691.4,531.2,692.3,527.1,693z"/>
		</g>
		<g>
			<path class="st5" d="M419,456.7c0,0.3,0,0.6-0.1,0.9c-0.4,3.4-3.3,5.9-6.7,5.9c-3.8,0-6.8-3-6.8-6.8c0-2.3,1.1-4.3,2.8-5.5
				c1.1-0.8,2.5-1.3,4-1.3C415.9,449.9,419,453,419,456.7z"/>
			<path class="st5" d="M425.8,538.6c0,0.8-0.1,1.5-0.3,2.2c-0.9,2.7-3.5,4.6-6.5,4.6c-0.9,0-1.7-0.2-2.5-0.5
				c-2.5-1-4.3-3.5-4.3-6.3c0-1.5,0.5-2.8,1.2-3.9c0.1-0.2,0.3-0.4,0.4-0.5c1.2-1.5,3.1-2.3,5.1-2.3
				C422.7,531.8,425.8,534.8,425.8,538.6z"/>
			<path class="st5" d="M507.2,456.7c0,3.8-3,6.8-6.8,6.8c-3.8,0-6.8-3-6.8-6.8c0-3.7,3-6.8,6.7-6.8h0.2
				C504.2,450,507.2,453,507.2,456.7z"/>
			<path class="st5" d="M588.9,538.6c0,2.8-1.7,5.3-4.2,6.3c-0.8,0.3-1.6,0.5-2.5,0.5c-3.8,0-6.8-3.1-6.8-6.8c0-3.8,3-6.8,6.8-6.8
				c2.3,0,4.3,1.1,5.6,2.9C588.5,535.8,588.9,537.2,588.9,538.6z"/>
			<path class="st5" d="M595.7,456.7c0,3.8-3,6.8-6.8,6.8c-3.7,0-6.8-3-6.8-6.8c0-3.8,3-6.8,6.8-6.8
				C592.7,449.9,595.7,453,595.7,456.7z"/>
		</g>
	</g>
</g>
</svg>
