<?xml version="1.0" encoding="utf-8"?>
<!-- Generator: Adobe Illustrator 25.2.1, SVG Export Plug-In . SVG Version: 6.00 Build 0)  -->
<svg version="1.1" id="Camada_1" xmlns="http://www.w3.org/2000/svg" xmlns:xlink="http://www.w3.org/1999/xlink" x="0px" y="0px"
	 viewBox="0 0 1080 1080" style="enable-background:new 0 0 1080 1080;" xml:space="preserve">
<style type="text/css">
	.st0{fill-rule:evenodd;clip-rule:evenodd;fill:#727270;}
	.st1{fill-rule:evenodd;clip-rule:evenodd;fill:#67CDFD;}
	.st2{fill-rule:evenodd;clip-rule:evenodd;fill:#FFFFFF;}
</style>
<g>
	<path class="st0" d="M202.6,464.1h186.1l150.2,262.9l151.8-262.9h186.2c8.2,0,11.4,6.5,13.1,13.1l189.4,537.1
		c3.3,6.5-6.5,14.7-13.1,14.7H13.3c-6.5,0-14.7-6.5-13-14.7l189.4-537.1C192.9,470.6,194.5,464.1,202.6,464.1L202.6,464.1z"/>
	<path class="st1" d="M538.9,679.6L357.7,364.5c-17.9-31-27.7-66.9-27.7-104.5c0-115.9,94.7-209,210.6-209c115.9,0,209,93.1,209,209
		c0,39.2-11.5,76.7-31,109.4L538.9,679.6z"/>
	<path class="st2" d="M542.2,145.7c65.3,0,119.2,52.3,119.2,119.2c0,65.3-53.9,119.2-119.2,119.2c-65.3,0-119.2-53.9-119.2-119.2
		C423,198,476.9,145.7,542.2,145.7L542.2,145.7z"/>
</g>
</svg>
