<?xml version="1.0" encoding="utf-8"?>
<!-- Generator: Adobe Illustrator 25.2.1, SVG Export Plug-In . SVG Version: 6.00 Build 0)  -->
<svg version="1.1" id="Camada_1" xmlns="http://www.w3.org/2000/svg" xmlns:xlink="http://www.w3.org/1999/xlink" x="0px" y="0px"
	 viewBox="0 0 1080 1080" style="enable-background:new 0 0 1080 1080;" xml:space="preserve">
<style type="text/css">
	.st0{fill-rule:evenodd;clip-rule:evenodd;fill:#00BF22;}
</style>
<path class="st0" d="M796.4,645.6c-13.2-7.2-78-42.2-90.1-47.1c-12.1-4.9-21-7.5-30.5,5.6c-9.4,13.1-36.3,42.4-44.4,51
	c-8.2,8.7-16.1,9.5-29.3,2.3c-13.1-7.2-55.9-23-105.5-70.7c-38.6-37.1-63.9-82.1-71.2-95.8c-7.4-13.7-0.1-20.7,6.9-27.2
	c6.3-5.8,14-15.2,21.1-22.8c7-7.6,9.4-13.1,14.2-21.9c4.8-8.8,2.9-16.7-0.2-23.6c-3.1-6.8-27.5-73.9-37.6-101.2
	c-10.2-27.3-21.5-23.2-29.4-23.5c-7.8-0.3-16.7-1.7-25.7-2.1c-9-0.3-23.7,2.5-36.4,15.5c-12.8,13-48.8,44.2-51.2,110.3
	c-2.5,66.1,43.2,131.7,49.6,140.9c6.4,9.2,87.3,152.5,221.8,211.3c134.5,58.9,135.3,41,159.9,39.6c24.7-1.3,80.7-29.5,93.1-60.5
	c12.4-30.9,13.4-57.8,10.2-63.5C818.4,656.5,809.6,652.8,796.4,645.6L796.4,645.6z M549.7,964.1c-88.9,0-171.8-26.7-240.9-72.4
	l-168.3,53.9l54.7-162.6c-52.4-72.2-83.4-160.9-83.4-256.8c0-241.5,196.5-438,437.9-438c241.5,0,438,196.5,438,438
	C987.7,767.6,791.2,964.1,549.7,964.1L549.7,964.1z M549.7,0C259.2,0,23.6,235.5,23.6,526.1c0,99.4,27.6,192.3,75.5,271.7L4.2,1080
	l291.3-93.2c75.4,41.7,162.1,65.4,254.3,65.4c290.6,0,526.1-235.6,526.1-526.1C1075.8,235.5,840.3,0,549.7,0L549.7,0z"/>
</svg>
